<svg xmlns="http://www.w3.org/2000/svg" xmlns:xlink="http://www.w3.org/1999/xlink" width="132.18" height="109.044" viewBox="0 0 132.18 109.044">
  <defs>
    <filter id="Icon_awesome-cogs" x="0" y="0" width="132.18" height="109.044" filterUnits="userSpaceOnUse">
      <feOffset dy="3" input="SourceAlpha"/>
      <feGaussianBlur stdDeviation="3" result="blur"/>
      <feFlood flood-opacity="0.161"/>
      <feComposite operator="in" in2="blur"/>
      <feComposite in="SourceGraphic"/>
    </filter>
  </defs>
  <g transform="matrix(1, 0, 0, 1, 0, 0)" filter="url(#Icon_awesome-cogs)">
    <path id="Icon_awesome-cogs-2" data-name="Icon awesome-cogs" d="M91.371,34.066l-1.463,2.551a2.205,2.205,0,0,1-2.694.963,19.716,19.716,0,0,1-5.727-3.319,2.216,2.216,0,0,1-.5-2.8l1.463-2.551a15.4,15.4,0,0,1-2.837-4.889H76.669a2.2,2.2,0,0,1-2.177-1.838,20.1,20.1,0,0,1,0-6.619,2.218,2.218,0,0,1,2.177-1.856h2.944A15.4,15.4,0,0,1,82.449,8.82L80.986,6.268a2.195,2.195,0,0,1,.5-2.8A19.952,19.952,0,0,1,87.213.148a2.205,2.205,0,0,1,2.694.963l1.463,2.551a15.855,15.855,0,0,1,5.656,0L98.49,1.112a2.205,2.205,0,0,1,2.694-.963,19.716,19.716,0,0,1,5.727,3.319,2.216,2.216,0,0,1,.5,2.8L105.948,8.82a15.4,15.4,0,0,1,2.837,4.889h2.944a2.2,2.2,0,0,1,2.177,1.838,20.1,20.1,0,0,1,0,6.619,2.218,2.218,0,0,1-2.177,1.856h-2.944a15.4,15.4,0,0,1-2.837,4.889l1.463,2.551a2.195,2.195,0,0,1-.5,2.8,19.952,19.952,0,0,1-5.727,3.319,2.205,2.205,0,0,1-2.694-.963l-1.463-2.551a15.855,15.855,0,0,1-5.656,0ZM89.5,23.575c6.869,5.281,14.7-2.551,9.421-9.421C92.049,8.855,84.216,16.706,89.5,23.575ZM68.925,51.034l6.013,3a4.29,4.29,0,0,1,1.873,5.192c-1.588,4.318-4.71,8.279-7.6,11.74a4.265,4.265,0,0,1-5.406.946l-5.192-3a30.65,30.65,0,0,1-9.8,5.656v5.995A4.27,4.27,0,0,1,45.3,84.774a40.124,40.124,0,0,1-13.542,0,4.286,4.286,0,0,1-3.568-4.211V74.568a30.985,30.985,0,0,1-9.8-5.656L13.2,71.892A4.269,4.269,0,0,1,7.8,70.946C4.908,67.485,1.857,63.524.269,59.224a4.305,4.305,0,0,1,1.873-5.192l5.941-3a30.909,30.909,0,0,1,0-11.312L2.142,36.707A4.254,4.254,0,0,1,.269,31.533c1.588-4.318,4.639-8.279,7.529-11.74a4.265,4.265,0,0,1,5.406-.946l5.192,3a30.65,30.65,0,0,1,9.8-5.656V10.176a4.249,4.249,0,0,1,3.5-4.193,40.69,40.69,0,0,1,13.56-.018,4.286,4.286,0,0,1,3.568,4.211v5.995a30.985,30.985,0,0,1,9.8,5.656l5.192-3a4.269,4.269,0,0,1,5.406.946c2.89,3.461,5.924,7.422,7.512,11.74a4.265,4.265,0,0,1-1.784,5.192l-6.013,3a31.006,31.006,0,0,1,0,11.33ZM47.943,54.8C58.505,41.06,42.822,25.377,29.084,35.94,18.521,49.678,34.2,65.361,47.943,54.8ZM91.371,87.4l-1.463,2.551a2.205,2.205,0,0,1-2.694.963,19.716,19.716,0,0,1-5.727-3.319,2.216,2.216,0,0,1-.5-2.8l1.463-2.551a15.4,15.4,0,0,1-2.837-4.889H76.669a2.2,2.2,0,0,1-2.177-1.838,20.1,20.1,0,0,1,0-6.619,2.218,2.218,0,0,1,2.177-1.856h2.944a15.4,15.4,0,0,1,2.837-4.889L80.986,59.6a2.195,2.195,0,0,1,.5-2.8,19.952,19.952,0,0,1,5.727-3.319,2.205,2.205,0,0,1,2.694.963l1.463,2.551a15.855,15.855,0,0,1,5.656,0l1.463-2.551a2.205,2.205,0,0,1,2.694-.963,19.716,19.716,0,0,1,5.727,3.319,2.216,2.216,0,0,1,.5,2.8l-1.463,2.551a15.4,15.4,0,0,1,2.837,4.889h2.944a2.2,2.2,0,0,1,2.177,1.838,20.1,20.1,0,0,1,0,6.619,2.218,2.218,0,0,1-2.177,1.856h-2.944a15.4,15.4,0,0,1-2.837,4.889l1.463,2.551a2.195,2.195,0,0,1-.5,2.8,19.952,19.952,0,0,1-5.727,3.319,2.205,2.205,0,0,1-2.694-.963L97.026,87.4A15.855,15.855,0,0,1,91.371,87.4ZM89.5,76.887c6.869,5.281,14.7-2.551,9.421-9.421C92.049,62.186,84.216,70.018,89.5,76.887Z" transform="translate(9 5.99)" fill="#ff9300"/>
  </g>
</svg>
