<svg xmlns="http://www.w3.org/2000/svg" xmlns:xlink="http://www.w3.org/1999/xlink" width="88.3" height="74.454" viewBox="0 0 88.3 74.454">
  <defs>
    <filter id="Icon_awesome-leaf" x="0" y="0" width="88.3" height="74.454" filterUnits="userSpaceOnUse">
      <feOffset dy="3" input="SourceAlpha"/>
      <feGaussianBlur stdDeviation="3" result="blur"/>
      <feFlood flood-opacity="0.161"/>
      <feComposite operator="in" in2="blur"/>
      <feComposite in="SourceGraphic"/>
    </filter>
  </defs>
  <g transform="matrix(1, 0, 0, 1, 0, 0)" filter="url(#Icon_awesome-leaf)">
    <path id="Icon_awesome-leaf-2" data-name="Icon awesome-leaf" d="M66.663,1.072A1.988,1.988,0,0,0,63.208.94a21.4,21.4,0,0,1-18.3,9.647H35.147c-12.938,0-23.436,9.481-23.436,21.167a19.727,19.727,0,0,0,.183,2.26c7.787-5.038,19.029-9.316,34.97-9.316a1.773,1.773,0,1,1,0,3.528C16.179,28.226,3.167,45.215.286,51.6a3.419,3.419,0,0,0,2.136,4.586,4.071,4.071,0,0,0,5.1-1.907A29.456,29.456,0,0,1,16.3,44.289,24.435,24.435,0,0,0,37.649,52.8C56.812,51.543,70.3,36.02,70.3,17.014A36.794,36.794,0,0,0,66.663,1.072Z" transform="translate(9 6)" fill="#0c5b53"/>
  </g>
</svg>
